<svg viewBox="0 0 500 500" xmlns="http://www.w3.org/2000/svg" xmlns:xlink="http://www.w3.org/1999/xlink">
    <g fill-rule="evenodd" fill="#89b4fa" transform="matrix(1, 0, 0, 1, 136.5, 115.499603)">
        <path
            d="M 0 269.001 L 0 15.001 Q 19 9.501 49 4.751 Q 79 0.001 112 0.001 A 211.91 211.91 0 0 1 135.514 1.229 Q 146.963 2.51 156.693 5.128 A 104.15 104.15 0 0 1 167.75 8.751 A 95.552 95.552 0 0 1 187.134 18.929 A 75.633 75.633 0 0 1 203 33.501 A 93.666 93.666 0 0 1 219.174 63.462 A 112.303 112.303 0 0 1 221.5 71.501 Q 227 93.501 227 120.501 L 227 269.001 L 152.5 269.001 L 152.5 129.501 A 217.572 217.572 0 0 0 151.906 112.814 Q 150.636 96.373 146.651 85.935 A 41.621 41.621 0 0 0 143 78.501 A 29.301 29.301 0 0 0 128.25 66.797 Q 119.688 63.501 107.5 63.501 Q 99.5 63.501 90.5 64.251 A 339.055 339.055 0 0 0 83.008 64.955 Q 78.438 65.439 74.5 66.001 L 74.5 269.001 L 0 269.001 Z">
        </path>
    </g>
</svg>